<?xml version="1.0" encoding="UTF-8"?>
<!-- Generated by Pixelmator Pro 4.2 -->
<svg width="8669" height="4694" viewBox="0 0 8669 4694" xmlns="http://www.w3.org/2000/svg">
    <g id="Artwork">
        <g id="Group">
            <path id="Path" fill="#a50034" stroke="none" d="M 250.134583 -7976.131836 L 250.134583 60286.367188 M 2347.440918 3911.519043 C 3211.916504 3911.519043 3912.401611 3210.355469 3912.401611 2346.331543 C 3912.401611 1481.908936 3211.916504 781.597656 2347.440918 781.597656 C 1483.195313 781.597656 782.480164 1481.908936 782.480164 2346.331543 C 782.480164 3210.355469 1483.195313 3911.519043 2347.440918 3911.519043"/>
            <path id="path1" fill="#ffffff" stroke="none" d="M 2285.316162 1659.486572 L 2285.316162 3031.40625 L 2721.301514 3031.40625 L 2721.301514 2909.246582 L 2409.816895 2909.246582 L 2409.816895 1659.486572 L 2285.316162 1659.486572 Z"/>
            <path id="path2" fill="#ffffff" stroke="none" d="M 1847.879395 2034.010498 C 1951.68689 2034.010498 2035.774048 1949.922363 2035.774048 1846.628418 C 2035.774048 1742.819824 1951.68689 1658.676758 1847.879395 1658.676758 C 1744.871338 1658.676758 1660.556396 1742.819824 1660.556396 1846.628418 C 1660.556396 1949.922363 1744.871338 2034.010498 1847.879395 2034.010498"/>
            <path id="path3" fill="#ffffff" stroke="none" d="M 2409.80249 1036.972656 C 2393.795166 1036.287109 2362.58667 1035.829346 2347.552734 1035.829346 C 1625.579102 1035.829346 1037.938721 1623.640625 1037.938721 2346.01416 C 1037.938721 2695.965332 1173.817261 3024.598877 1420.818359 3271.945801 C 1669.079956 3519.459717 1998.226196 3655.568115 2347.552734 3655.568115 C 2696.934326 3655.568115 3026.136475 3519.459717 3274.342041 3271.945801 C 3521.113281 3024.598877 3657.046875 2695.965332 3657.046875 2346.01416 L 3657.046875 2286.219971 L 3604.858643 2286.622803 L 2722.257813 2286.622803 L 2722.257813 2408.204834 L 3532.7771 2408.204834 L 3532.7771 2425.81543 C 3491.1604 3043.578613 2975.490723 3533.294434 2347.552734 3533.294434 C 2030.524048 3533.294434 1732.419189 3409.879395 1508.109863 3185.685059 C 1283.68457 2961.433594 1160.154541 2663.099854 1160.154541 2346.01416 C 1160.154541 2028.755371 1283.68457 1730.480713 1508.109863 1506.398193 C 1732.419189 1281.689209 2030.524048 1158.331055 2347.552734 1158.331055 C 2361.89917 1158.331055 2395.568115 1158.615723 2409.80249 1158.95752 L 2409.80249 1036.972656 Z"/>
            <path id="path4" fill="#ffffff" stroke="none" d="M 5079.455078 1326.220459 L 4612.03125 1326.220459 L 4612.03125 3349.572266 L 6047.802246 3349.572266 L 6047.802246 2955.604736 L 5079.455078 2955.604736 L 5079.455078 1326.220459 Z"/>
            <path id="path5" fill="#ffffff" stroke="none" d="M 7076.092773 2578.397217 L 7456.515625 2578.397217 L 7456.515625 2932.008545 C 7386.604004 2958.821289 7249.812012 2985.687012 7119.652832 2985.687012 C 6698.816406 2985.687012 6558.535156 2771.835938 6558.535156 2337.739746 C 6558.535156 1923.992676 6691.957031 1680.018799 7112.733398 1680.018799 C 7346.41748 1680.018799 7480.066406 1753.531494 7590.161621 1893.694824 L 7880.893066 1626.802246 C 7703.859863 1372.995605 7393.177734 1296.166748 7102.730469 1296.166748 C 6448.27002 1296.166748 6104.260742 1653.381104 6104.260742 2334.368652 C 6104.260742 3012.20874 6414.771973 3379.426758 7099.416504 3379.426758 C 7413.126953 3379.426758 7720.324219 3299.397461 7887.466797 3182.499023 L 7887.466797 2200.947754 L 7076.092773 2200.947754 L 7076.092773 2578.397217 Z"/>
        </g>
    </g>
</svg>
